# xmcd
#
# Track frame offsets: 
#        150
#        22338
#        40580
#        68340
#        90246
#        128447
#        144206
#        172241
#        205852
#        219251
#
# Disc length: 3472 seconds
#
# Revision: 0
# Processed by: cddbd v1.5.2PL0 Copyright (c) Steve Scherf et al.
# Submitted via: ExactAudioCopyFreeDBPlugin 1.0
#
DISCID=7c0d8e0a
DTITLE=The Paul DesLauriers Band - The Paul DesLauriers Band
DYEAR=2014
DGENRE=Blues
TTITLE0=Going Down Slow (with Steve Marriner)
TTITLE1=She Should Be Mine (with Steve Marriner)
TTITLE2=Labour Of Love
TTITLE3=All I Want (with Steve Strongman)
TTITLE4=Love In Vain
TTITLE5=Green Stripe
TTITLE6=Nobody's Fault But Mine
TTITLE7=Baby Come Home
TTITLE8=I Blame You
TTITLE9=Not Fade Away
EXTD=
EXTT0=
EXTT1=
EXTT2=
EXTT3=
EXTT4=
EXTT5=
EXTT6=
EXTT7=
EXTT8=
EXTT9=
PLAYORDER=
